<svg version="1.1" xmlns="http://www.w3.org/2000/svg" xmlns:xlink="http://www.w3.org/1999/xlink" width="48" height="48"><defs><linearGradient x1="11.35915" y1="12.93723" x2="62.78415" y2="61.62256" gradientUnits="userSpaceOnUse" id="color-1"><stop offset="0" stop-color="#000000" stop-opacity="0.3"></stop><stop offset="1" stop-color="#000000" stop-opacity="0"></stop></linearGradient><filter id="dropshadow-base"><feColorMatrix type="matrix" values="0 0 0 0 0  0 0 0 0 0  0 0 0 0 0  0 0 0 .8 0"></feColorMatrix> <feOffset dx="0" dy="1"></feOffset> <feGaussianBlur stdDeviation="1"></feGaussianBlur> <feComposite in="SourceGraphic"></feComposite></filter><filter id="dropshadow-banner" x="-10%" y="-10%" width="120%" height="130%"><feColorMatrix type="matrix" values="0 0 0 0 0  0 0 0 0 0  0 0 0 0 0  0 0 0 .4 0"></feColorMatrix> <feOffset dx="0" dy="1"></feOffset> <feGaussianBlur stdDeviation="0.5"></feGaussianBlur> <feComposite in="SourceGraphic"></feComposite></filter></defs><g fill="none" fill-rule="nonzero" stroke="none" stroke-width="none" stroke-linecap="butt" stroke-linejoin="miter" stroke-miterlimit="10" stroke-dasharray="" stroke-dashoffset="0" font-family="none" font-weight="none" font-size="none" text-anchor="none" style="mix-blend-mode: normal"><path d="M2,24c0,-12.15026 9.84974,-22 22,-22c12.15026,0 22,9.84974 22,22c0,12.15026 -9.84974,22 -22,22c-12.15026,0 -22,-9.84974 -22,-22z" id="base 1 5" fill="#a81313" stroke-width="1"></path><path d="M12.72898,34.85453l0,-6.84916l-1.36983,-1.36983v-2.73966l1.36983,-6.84916l1.36983,0l-1.36983,-1.36983v-2.73966h21.9173l11.35185,11.35185c-0.15475,12.01703 -9.94438,21.71092 -21.99814,21.71092c-0.04199,0 -0.08396,-0.00012 -0.1259,-0.00035z" fill="url(#color-1)" stroke-width="1"></path><path d="M34.64629,12.93723h-21.9173v2.73966h21.9173zM36.01612,26.63554v-2.73966l-1.36983,-6.84916h-21.9173l-1.36983,6.84916v2.73966h1.36983v8.21899h13.69831v-8.21899h5.47933v8.21899h2.73966v-8.21899zM23.68764,32.11487h-8.21899v-5.47933h8.21899z" fill="none" stroke-width="0"></path><path d="M34.64629,15.67689h-21.9173v-2.73966h21.9173zM34.64629,26.63554v8.21899h-2.73966v-8.21899h-5.47933v8.21899h-13.69831v-8.21899h-1.36983v-2.73966l1.36983,-6.84916h21.9173l1.36983,6.84916v2.73966zM23.68764,26.63554h-8.21899v5.47933h8.21899z" fill="#ffffff" stroke-width="0"></path><path d="M2,24c0,-12.15026 9.84974,-22 22,-22c12.15026,0 22,9.84974 22,22c0,12.15026 -9.84974,22 -22,22c-12.15026,0 -22,-9.84974 -22,-22z" id="base 1 1 1" fill="none" stroke-width="1"></path><g fill="#000000" stroke-width="1" font-family="Roboto, sans-serif" font-weight="400" font-size="14" text-anchor="start"></g><rect x="2" y="2" width="44" height="22" fill="none" stroke-width="1"></rect><path d="M2,24v-22h44v22z" fill="none" stroke-width="1"></path><path d="M2,24v-22h44v22z" fill="none" stroke-width="1"></path><path d="M2,24v-22h44v22z" fill="none" stroke-width="1"></path><path d="M2,24v-22h44v22z" fill="none" stroke-width="1"></path></g></svg>